<mxfile host="app.diagrams.net" agent="Mozilla/5.0 (Windows NT 10.0; Win64; x64) AppleWebKit/537.36 (KHTML, like Gecko) Chrome/139.0.0.0 Safari/537.36" version="28.2.3">
  <diagram name="Page-1" id="6mqWmTH1F3zgbroQaGwl">
    <mxGraphModel dx="786" dy="451" grid="1" gridSize="10" guides="1" tooltips="1" connect="1" arrows="1" fold="1" page="1" pageScale="1" pageWidth="850" pageHeight="1100" math="0" shadow="0">
      <root>
        <mxCell id="0" />
        <mxCell id="1" parent="0" />
        <mxCell id="Z9uD9QNEorz4MZ7ru0qd-4" style="edgeStyle=orthogonalEdgeStyle;rounded=0;orthogonalLoop=1;jettySize=auto;html=1;exitX=1;exitY=0.25;exitDx=0;exitDy=0;entryX=0;entryY=0.25;entryDx=0;entryDy=0;" edge="1" parent="1" source="Z9uD9QNEorz4MZ7ru0qd-1" target="Z9uD9QNEorz4MZ7ru0qd-2">
          <mxGeometry relative="1" as="geometry" />
        </mxCell>
        <mxCell id="Z9uD9QNEorz4MZ7ru0qd-1" value="Scheduler" style="whiteSpace=wrap;html=1;aspect=fixed;" vertex="1" parent="1">
          <mxGeometry x="120" y="190" width="80" height="80" as="geometry" />
        </mxCell>
        <mxCell id="Z9uD9QNEorz4MZ7ru0qd-2" value="" style="whiteSpace=wrap;html=1;aspect=fixed;" vertex="1" parent="1">
          <mxGeometry x="290" y="70" width="260" height="260" as="geometry" />
        </mxCell>
        <mxCell id="Z9uD9QNEorz4MZ7ru0qd-5" value="SQL" style="shape=cylinder3;whiteSpace=wrap;html=1;boundedLbl=1;backgroundOutline=1;size=15;" vertex="1" parent="1">
          <mxGeometry x="710" y="70" width="60" height="80" as="geometry" />
        </mxCell>
        <mxCell id="Z9uD9QNEorz4MZ7ru0qd-6" style="edgeStyle=orthogonalEdgeStyle;rounded=0;orthogonalLoop=1;jettySize=auto;html=1;exitX=1;exitY=0.25;exitDx=0;exitDy=0;entryX=0;entryY=0.625;entryDx=0;entryDy=0;entryPerimeter=0;" edge="1" parent="1" source="Z9uD9QNEorz4MZ7ru0qd-2" target="Z9uD9QNEorz4MZ7ru0qd-5">
          <mxGeometry relative="1" as="geometry">
            <mxPoint x="620" y="90" as="targetPoint" />
            <Array as="points">
              <mxPoint x="570" y="178" />
              <mxPoint x="620" y="178" />
              <mxPoint x="620" y="120" />
            </Array>
          </mxGeometry>
        </mxCell>
        <mxCell id="Z9uD9QNEorz4MZ7ru0qd-7" value="No SQL" style="shape=cylinder3;whiteSpace=wrap;html=1;boundedLbl=1;backgroundOutline=1;size=15;" vertex="1" parent="1">
          <mxGeometry x="740" y="210" width="60" height="80" as="geometry" />
        </mxCell>
        <mxCell id="Z9uD9QNEorz4MZ7ru0qd-10" style="edgeStyle=orthogonalEdgeStyle;rounded=0;orthogonalLoop=1;jettySize=auto;html=1;exitX=0;exitY=0.5;exitDx=0;exitDy=0;exitPerimeter=0;" edge="1" parent="1" source="Z9uD9QNEorz4MZ7ru0qd-9">
          <mxGeometry relative="1" as="geometry">
            <mxPoint x="490" y="342.6666564941406" as="targetPoint" />
            <Array as="points">
              <mxPoint x="600" y="390" />
              <mxPoint x="600" y="400" />
              <mxPoint x="590" y="400" />
              <mxPoint x="590" y="410" />
              <mxPoint x="530" y="410" />
              <mxPoint x="530" y="390" />
              <mxPoint x="490" y="390" />
            </Array>
          </mxGeometry>
        </mxCell>
        <mxCell id="Z9uD9QNEorz4MZ7ru0qd-9" value="Listener" style="whiteSpace=wrap;html=1;aspect=fixed;" vertex="1" parent="1">
          <mxGeometry x="630" y="350" width="80" height="80" as="geometry" />
        </mxCell>
        <mxCell id="Z9uD9QNEorz4MZ7ru0qd-11" style="edgeStyle=orthogonalEdgeStyle;rounded=0;orthogonalLoop=1;jettySize=auto;html=1;exitX=0.5;exitY=0;exitDx=0;exitDy=0;entryX=0;entryY=0;entryDx=0;entryDy=52.5;entryPerimeter=0;exitPerimeter=0;" edge="1" parent="1" source="Z9uD9QNEorz4MZ7ru0qd-9" target="Z9uD9QNEorz4MZ7ru0qd-7">
          <mxGeometry relative="1" as="geometry">
            <mxPoint x="640" y="370" as="targetPoint" />
            <Array as="points">
              <mxPoint x="670" y="270" />
              <mxPoint x="710" y="270" />
              <mxPoint x="710" y="263" />
            </Array>
          </mxGeometry>
        </mxCell>
        <mxCell id="Z9uD9QNEorz4MZ7ru0qd-13" value="kafka" style="text;html=1;align=center;verticalAlign=middle;whiteSpace=wrap;rounded=0;" vertex="1" parent="1">
          <mxGeometry x="400" y="260" width="100" height="30" as="geometry" />
        </mxCell>
      </root>
    </mxGraphModel>
  </diagram>
</mxfile>
